<mxfile host="Electron" agent="Mozilla/5.0 (Windows NT 10.0; Win64; x64) AppleWebKit/537.36 (KHTML, like Gecko) draw.io/24.7.8 Chrome/128.0.6613.36 Electron/32.0.1 Safari/537.36" version="24.7.8">
  <diagram name="Страница — 1" id="ApuDk91pIEpExBx-2Sa9">
    <mxGraphModel dx="1290" dy="1029" grid="0" gridSize="10" guides="1" tooltips="1" connect="1" arrows="1" fold="1" page="0" pageScale="1" pageWidth="827" pageHeight="1169" math="0" shadow="0">
      <root>
        <mxCell id="0" />
        <mxCell id="1" parent="0" />
        <mxCell id="WO-EqX3i4rQMslcprNJ9-16" style="edgeStyle=orthogonalEdgeStyle;rounded=0;orthogonalLoop=1;jettySize=auto;html=1;" parent="1" source="xVth3tveWRHT5VVFhn84-1" target="WO-EqX3i4rQMslcprNJ9-15" edge="1">
          <mxGeometry relative="1" as="geometry" />
        </mxCell>
        <mxCell id="xVth3tveWRHT5VVFhn84-1" value="Начало" style="ellipse;whiteSpace=wrap;html=1;fillColor=default;" parent="1" vertex="1">
          <mxGeometry x="250" y="-134" width="120" height="80" as="geometry" />
        </mxCell>
        <mxCell id="WO-EqX3i4rQMslcprNJ9-7" style="edgeStyle=orthogonalEdgeStyle;rounded=0;orthogonalLoop=1;jettySize=auto;html=1;" parent="1" source="xVth3tveWRHT5VVFhn84-2" target="WO-EqX3i4rQMslcprNJ9-2" edge="1">
          <mxGeometry relative="1" as="geometry" />
        </mxCell>
        <mxCell id="xVth3tveWRHT5VVFhn84-2" value="line = list(map(int, f.readline().split()))" style="shape=parallelogram;perimeter=parallelogramPerimeter;whiteSpace=wrap;html=1;fixedSize=1;" parent="1" vertex="1">
          <mxGeometry x="196" y="281" width="230" height="60" as="geometry" />
        </mxCell>
        <mxCell id="xVth3tveWRHT5VVFhn84-30" style="edgeStyle=orthogonalEdgeStyle;rounded=0;orthogonalLoop=1;jettySize=auto;html=1;entryX=0.5;entryY=0;entryDx=0;entryDy=0;exitX=1;exitY=0.5;exitDx=0;exitDy=0;" parent="1" source="WO-EqX3i4rQMslcprNJ9-3" target="xVth3tveWRHT5VVFhn84-28" edge="1">
          <mxGeometry relative="1" as="geometry">
            <Array as="points">
              <mxPoint x="661" y="212" />
              <mxPoint x="661" y="968" />
              <mxPoint x="361" y="968" />
            </Array>
            <mxPoint x="356.9852941176471" y="211.52941176470586" as="sourcePoint" />
          </mxGeometry>
        </mxCell>
        <mxCell id="xVth3tveWRHT5VVFhn84-13" style="edgeStyle=orthogonalEdgeStyle;rounded=0;orthogonalLoop=1;jettySize=auto;html=1;" parent="1" source="xVth3tveWRHT5VVFhn84-8" target="xVth3tveWRHT5VVFhn84-10" edge="1">
          <mxGeometry relative="1" as="geometry" />
        </mxCell>
        <mxCell id="xVth3tveWRHT5VVFhn84-19" style="edgeStyle=orthogonalEdgeStyle;rounded=0;orthogonalLoop=1;jettySize=auto;html=1;entryX=0.5;entryY=0;entryDx=0;entryDy=0;" parent="1" source="xVth3tveWRHT5VVFhn84-8" target="xVth3tveWRHT5VVFhn84-16" edge="1">
          <mxGeometry relative="1" as="geometry" />
        </mxCell>
        <mxCell id="xVth3tveWRHT5VVFhn84-8" value="line[0]&amp;gt;count" style="rhombus;whiteSpace=wrap;html=1;" parent="1" vertex="1">
          <mxGeometry x="271" y="535" width="80" height="80" as="geometry" />
        </mxCell>
        <mxCell id="xVth3tveWRHT5VVFhn84-14" style="edgeStyle=orthogonalEdgeStyle;rounded=0;orthogonalLoop=1;jettySize=auto;html=1;entryX=0.5;entryY=0;entryDx=0;entryDy=0;" parent="1" source="xVth3tveWRHT5VVFhn84-10" target="xVth3tveWRHT5VVFhn84-11" edge="1">
          <mxGeometry relative="1" as="geometry" />
        </mxCell>
        <mxCell id="xVth3tveWRHT5VVFhn84-10" value="count = line[0]" style="rounded=0;whiteSpace=wrap;html=1;" parent="1" vertex="1">
          <mxGeometry x="251" y="635" width="120" height="60" as="geometry" />
        </mxCell>
        <mxCell id="xVth3tveWRHT5VVFhn84-11" value="data.get(keys[change_pos]).append(line[1:])" style="rounded=0;whiteSpace=wrap;html=1;" parent="1" vertex="1">
          <mxGeometry x="191" y="725" width="240" height="60" as="geometry" />
        </mxCell>
        <mxCell id="xVth3tveWRHT5VVFhn84-20" value="" style="edgeStyle=orthogonalEdgeStyle;rounded=0;orthogonalLoop=1;jettySize=auto;html=1;" parent="1" source="xVth3tveWRHT5VVFhn84-16" target="xVth3tveWRHT5VVFhn84-17" edge="1">
          <mxGeometry relative="1" as="geometry" />
        </mxCell>
        <mxCell id="xVth3tveWRHT5VVFhn84-16" value="data[keys[change_pos]] = np.array(data.get(keys[change_pos]))" style="rounded=0;whiteSpace=wrap;html=1;" parent="1" vertex="1">
          <mxGeometry x="412" y="595" width="206" height="60" as="geometry" />
        </mxCell>
        <mxCell id="xVth3tveWRHT5VVFhn84-21" value="" style="edgeStyle=orthogonalEdgeStyle;rounded=0;orthogonalLoop=1;jettySize=auto;html=1;" parent="1" source="xVth3tveWRHT5VVFhn84-17" target="xVth3tveWRHT5VVFhn84-18" edge="1">
          <mxGeometry relative="1" as="geometry" />
        </mxCell>
        <mxCell id="xVth3tveWRHT5VVFhn84-17" value="count = 0" style="rounded=0;whiteSpace=wrap;html=1;" parent="1" vertex="1">
          <mxGeometry x="455" y="675" width="120" height="60" as="geometry" />
        </mxCell>
        <mxCell id="xVth3tveWRHT5VVFhn84-26" value="" style="edgeStyle=orthogonalEdgeStyle;rounded=0;orthogonalLoop=1;jettySize=auto;html=1;" parent="1" source="xVth3tveWRHT5VVFhn84-18" target="xVth3tveWRHT5VVFhn84-25" edge="1">
          <mxGeometry relative="1" as="geometry" />
        </mxCell>
        <mxCell id="xVth3tveWRHT5VVFhn84-18" value="change_pos += 1" style="rounded=0;whiteSpace=wrap;html=1;" parent="1" vertex="1">
          <mxGeometry x="455" y="755" width="120" height="60" as="geometry" />
        </mxCell>
        <mxCell id="xVth3tveWRHT5VVFhn84-23" value="Нет" style="text;html=1;align=center;verticalAlign=middle;resizable=0;points=[];autosize=1;strokeColor=none;fillColor=none;" parent="1" vertex="1">
          <mxGeometry x="351" y="543" width="40" height="30" as="geometry" />
        </mxCell>
        <mxCell id="xVth3tveWRHT5VVFhn84-24" value="Да" style="text;html=1;align=center;verticalAlign=middle;resizable=0;points=[];autosize=1;strokeColor=none;fillColor=none;" parent="1" vertex="1">
          <mxGeometry x="311" y="603" width="40" height="30" as="geometry" />
        </mxCell>
        <mxCell id="xVth3tveWRHT5VVFhn84-25" value="data.get(keys[change_pos]).append(line[1:])" style="rounded=0;whiteSpace=wrap;html=1;" parent="1" vertex="1">
          <mxGeometry x="395" y="835" width="240" height="60" as="geometry" />
        </mxCell>
        <mxCell id="xVth3tveWRHT5VVFhn84-28" value="15" style="ellipse;whiteSpace=wrap;html=1;aspect=fixed;" parent="1" vertex="1">
          <mxGeometry x="341" y="1016" width="40" height="40" as="geometry" />
        </mxCell>
        <mxCell id="xVth3tveWRHT5VVFhn84-41" value="" style="edgeStyle=orthogonalEdgeStyle;rounded=0;orthogonalLoop=1;jettySize=auto;html=1;" parent="1" source="xVth3tveWRHT5VVFhn84-29" target="xVth3tveWRHT5VVFhn84-37" edge="1">
          <mxGeometry relative="1" as="geometry" />
        </mxCell>
        <mxCell id="xVth3tveWRHT5VVFhn84-29" value="15" style="ellipse;whiteSpace=wrap;html=1;aspect=fixed;" parent="1" vertex="1">
          <mxGeometry x="796" y="16" width="40" height="40" as="geometry" />
        </mxCell>
        <mxCell id="WO-EqX3i4rQMslcprNJ9-6" value="" style="edgeStyle=orthogonalEdgeStyle;rounded=0;orthogonalLoop=1;jettySize=auto;html=1;" parent="1" source="xVth3tveWRHT5VVFhn84-31" target="WO-EqX3i4rQMslcprNJ9-3" edge="1">
          <mxGeometry relative="1" as="geometry" />
        </mxCell>
        <mxCell id="xVth3tveWRHT5VVFhn84-31" value="keys = list(data.keys())" style="rounded=0;whiteSpace=wrap;html=1;" parent="1" vertex="1">
          <mxGeometry x="250" y="60" width="120" height="60" as="geometry" />
        </mxCell>
        <mxCell id="xVth3tveWRHT5VVFhn84-40" value="" style="edgeStyle=orthogonalEdgeStyle;rounded=0;orthogonalLoop=1;jettySize=auto;html=1;" parent="1" source="xVth3tveWRHT5VVFhn84-37" target="xVth3tveWRHT5VVFhn84-39" edge="1">
          <mxGeometry relative="1" as="geometry" />
        </mxCell>
        <mxCell id="xVth3tveWRHT5VVFhn84-61" style="edgeStyle=orthogonalEdgeStyle;rounded=0;orthogonalLoop=1;jettySize=auto;html=1;" parent="1" source="xVth3tveWRHT5VVFhn84-37" target="xVth3tveWRHT5VVFhn84-58" edge="1">
          <mxGeometry relative="1" as="geometry">
            <Array as="points">
              <mxPoint x="916" y="126" />
              <mxPoint x="916" y="285" />
              <mxPoint x="816" y="285" />
            </Array>
          </mxGeometry>
        </mxCell>
        <mxCell id="xVth3tveWRHT5VVFhn84-37" value="for i in keys" style="shape=hexagon;perimeter=hexagonPerimeter2;whiteSpace=wrap;html=1;fixedSize=1;" parent="1" vertex="1">
          <mxGeometry x="756" y="86" width="120" height="80" as="geometry" />
        </mxCell>
        <mxCell id="xVth3tveWRHT5VVFhn84-42" style="edgeStyle=orthogonalEdgeStyle;rounded=0;orthogonalLoop=1;jettySize=auto;html=1;entryX=0;entryY=0.5;entryDx=0;entryDy=0;" parent="1" source="xVth3tveWRHT5VVFhn84-39" target="xVth3tveWRHT5VVFhn84-37" edge="1">
          <mxGeometry relative="1" as="geometry">
            <Array as="points">
              <mxPoint x="816" y="269" />
              <mxPoint x="736" y="269" />
              <mxPoint x="736" y="126" />
            </Array>
          </mxGeometry>
        </mxCell>
        <mxCell id="xVth3tveWRHT5VVFhn84-39" value="data[i] = np.array(data.get(i))" style="whiteSpace=wrap;html=1;" parent="1" vertex="1">
          <mxGeometry x="756" y="196" width="120" height="60" as="geometry" />
        </mxCell>
        <mxCell id="xVth3tveWRHT5VVFhn84-50" style="edgeStyle=orthogonalEdgeStyle;rounded=0;orthogonalLoop=1;jettySize=auto;html=1;entryX=0.5;entryY=0;entryDx=0;entryDy=0;" parent="1" source="xVth3tveWRHT5VVFhn84-43" target="xVth3tveWRHT5VVFhn84-44" edge="1">
          <mxGeometry relative="1" as="geometry" />
        </mxCell>
        <mxCell id="xVth3tveWRHT5VVFhn84-43" value="Начало" style="ellipse;whiteSpace=wrap;html=1;" parent="1" vertex="1">
          <mxGeometry x="1102" y="-5.5" width="120" height="80" as="geometry" />
        </mxCell>
        <mxCell id="xVth3tveWRHT5VVFhn84-52" value="" style="edgeStyle=orthogonalEdgeStyle;rounded=0;orthogonalLoop=1;jettySize=auto;html=1;" parent="1" source="xVth3tveWRHT5VVFhn84-44" target="xVth3tveWRHT5VVFhn84-45" edge="1">
          <mxGeometry relative="1" as="geometry" />
        </mxCell>
        <mxCell id="xVth3tveWRHT5VVFhn84-44" value="mean = np.mean(one_class, axis=0)&amp;nbsp;" style="rounded=0;whiteSpace=wrap;html=1;" parent="1" vertex="1">
          <mxGeometry x="1057" y="106.5" width="210" height="56" as="geometry" />
        </mxCell>
        <mxCell id="xVth3tveWRHT5VVFhn84-53" value="" style="edgeStyle=orthogonalEdgeStyle;rounded=0;orthogonalLoop=1;jettySize=auto;html=1;" parent="1" source="xVth3tveWRHT5VVFhn84-45" target="xVth3tveWRHT5VVFhn84-46" edge="1">
          <mxGeometry relative="1" as="geometry" />
        </mxCell>
        <mxCell id="xVth3tveWRHT5VVFhn84-45" value="std = np.std(one_class, axis=0)&amp;nbsp;" style="whiteSpace=wrap;html=1;" parent="1" vertex="1">
          <mxGeometry x="1057" y="205.5" width="210" height="56" as="geometry" />
        </mxCell>
        <mxCell id="xVth3tveWRHT5VVFhn84-54" value="" style="edgeStyle=orthogonalEdgeStyle;rounded=0;orthogonalLoop=1;jettySize=auto;html=1;" parent="1" source="xVth3tveWRHT5VVFhn84-46" target="xVth3tveWRHT5VVFhn84-47" edge="1">
          <mxGeometry relative="1" as="geometry" />
        </mxCell>
        <mxCell id="xVth3tveWRHT5VVFhn84-46" value="ix = mean**2/std**2&amp;nbsp;" style="whiteSpace=wrap;html=1;" parent="1" vertex="1">
          <mxGeometry x="1057" y="307.5" width="210" height="56" as="geometry" />
        </mxCell>
        <mxCell id="xVth3tveWRHT5VVFhn84-55" value="" style="edgeStyle=orthogonalEdgeStyle;rounded=0;orthogonalLoop=1;jettySize=auto;html=1;" parent="1" source="xVth3tveWRHT5VVFhn84-47" target="xVth3tveWRHT5VVFhn84-48" edge="1">
          <mxGeometry relative="1" as="geometry" />
        </mxCell>
        <mxCell id="xVth3tveWRHT5VVFhn84-47" value="indexix = np.argsort(ix)" style="whiteSpace=wrap;html=1;" parent="1" vertex="1">
          <mxGeometry x="1057" y="403.5" width="210" height="56" as="geometry" />
        </mxCell>
        <mxCell id="xVth3tveWRHT5VVFhn84-57" value="" style="edgeStyle=orthogonalEdgeStyle;rounded=0;orthogonalLoop=1;jettySize=auto;html=1;" parent="1" source="xVth3tveWRHT5VVFhn84-48" target="xVth3tveWRHT5VVFhn84-56" edge="1">
          <mxGeometry relative="1" as="geometry" />
        </mxCell>
        <mxCell id="xVth3tveWRHT5VVFhn84-48" value="return [indexix[0]+1, ix[indexix[0]], indexix[1]+1, ix[indexix[1]]]" style="whiteSpace=wrap;html=1;" parent="1" vertex="1">
          <mxGeometry x="1057" y="541.5" width="210" height="56" as="geometry" />
        </mxCell>
        <mxCell id="xVth3tveWRHT5VVFhn84-56" value="Конец" style="ellipse;whiteSpace=wrap;html=1;" parent="1" vertex="1">
          <mxGeometry x="1102" y="637.5" width="120" height="80" as="geometry" />
        </mxCell>
        <mxCell id="xVth3tveWRHT5VVFhn84-62" style="edgeStyle=orthogonalEdgeStyle;rounded=0;orthogonalLoop=1;jettySize=auto;html=1;" parent="1" source="xVth3tveWRHT5VVFhn84-58" target="xVth3tveWRHT5VVFhn84-59" edge="1">
          <mxGeometry relative="1" as="geometry" />
        </mxCell>
        <mxCell id="xVth3tveWRHT5VVFhn84-58" value="fish = fischer_one_class(data.get(&quot;A&quot;))" style="shape=process;whiteSpace=wrap;html=1;backgroundOutline=1;" parent="1" vertex="1">
          <mxGeometry x="698.5" y="313" width="235" height="70" as="geometry" />
        </mxCell>
        <mxCell id="xVth3tveWRHT5VVFhn84-65" value="" style="edgeStyle=orthogonalEdgeStyle;rounded=0;orthogonalLoop=1;jettySize=auto;html=1;" parent="1" source="xVth3tveWRHT5VVFhn84-59" target="xVth3tveWRHT5VVFhn84-64" edge="1">
          <mxGeometry relative="1" as="geometry" />
        </mxCell>
        <mxCell id="xVth3tveWRHT5VVFhn84-59" value="&quot;Первый самый малый признак: {u[0]}, второй малый признак: {u[2]}&quot;" style="shape=document;whiteSpace=wrap;html=1;boundedLbl=1;" parent="1" vertex="1">
          <mxGeometry x="741" y="418" width="150" height="80" as="geometry" />
        </mxCell>
        <mxCell id="xVth3tveWRHT5VVFhn84-64" value="Конец" style="ellipse;whiteSpace=wrap;html=1;" parent="1" vertex="1">
          <mxGeometry x="756" y="537" width="120" height="80" as="geometry" />
        </mxCell>
        <mxCell id="xVth3tveWRHT5VVFhn84-66" value="1" style="text;html=1;align=center;verticalAlign=middle;resizable=0;points=[];autosize=1;strokeColor=none;fillColor=none;" parent="1" vertex="1">
          <mxGeometry x="382" y="-140" width="25" height="26" as="geometry" />
        </mxCell>
        <mxCell id="xVth3tveWRHT5VVFhn84-67" value="2" style="text;html=1;align=center;verticalAlign=middle;resizable=0;points=[];autosize=1;strokeColor=none;fillColor=none;" parent="1" vertex="1">
          <mxGeometry x="365" y="-51" width="25" height="26" as="geometry" />
        </mxCell>
        <mxCell id="xVth3tveWRHT5VVFhn84-68" value="3" style="text;html=1;align=center;verticalAlign=middle;resizable=0;points=[];autosize=1;strokeColor=none;fillColor=none;" parent="1" vertex="1">
          <mxGeometry x="365" y="52" width="25" height="26" as="geometry" />
        </mxCell>
        <mxCell id="xVth3tveWRHT5VVFhn84-69" value="4" style="text;html=1;align=center;verticalAlign=middle;resizable=0;points=[];autosize=1;strokeColor=none;fillColor=none;" parent="1" vertex="1">
          <mxGeometry x="348.5" y="157" width="25" height="26" as="geometry" />
        </mxCell>
        <mxCell id="xVth3tveWRHT5VVFhn84-70" value="5" style="text;html=1;align=center;verticalAlign=middle;resizable=0;points=[];autosize=1;strokeColor=none;fillColor=none;" parent="1" vertex="1">
          <mxGeometry x="373.5" y="242" width="25" height="26" as="geometry" />
        </mxCell>
        <mxCell id="xVth3tveWRHT5VVFhn84-71" value="8" style="text;html=1;align=center;verticalAlign=middle;resizable=0;points=[];autosize=1;strokeColor=none;fillColor=none;" parent="1" vertex="1">
          <mxGeometry x="320" y="527" width="25" height="26" as="geometry" />
        </mxCell>
        <mxCell id="xVth3tveWRHT5VVFhn84-72" value="9" style="text;html=1;align=center;verticalAlign=middle;resizable=0;points=[];autosize=1;strokeColor=none;fillColor=none;" parent="1" vertex="1">
          <mxGeometry x="256" y="607" width="25" height="26" as="geometry" />
        </mxCell>
        <mxCell id="xVth3tveWRHT5VVFhn84-73" value="10" style="text;html=1;align=center;verticalAlign=middle;resizable=0;points=[];autosize=1;strokeColor=none;fillColor=none;" parent="1" vertex="1">
          <mxGeometry x="397" y="694" width="31" height="26" as="geometry" />
        </mxCell>
        <mxCell id="xVth3tveWRHT5VVFhn84-74" value="11" style="text;html=1;align=center;verticalAlign=middle;resizable=0;points=[];autosize=1;strokeColor=none;fillColor=none;" parent="1" vertex="1">
          <mxGeometry x="568" y="567" width="30" height="26" as="geometry" />
        </mxCell>
        <mxCell id="xVth3tveWRHT5VVFhn84-75" value="12" style="text;html=1;align=center;verticalAlign=middle;resizable=0;points=[];autosize=1;strokeColor=none;fillColor=none;" parent="1" vertex="1">
          <mxGeometry x="573" y="680" width="31" height="26" as="geometry" />
        </mxCell>
        <mxCell id="xVth3tveWRHT5VVFhn84-76" value="13" style="text;html=1;align=center;verticalAlign=middle;resizable=0;points=[];autosize=1;strokeColor=none;fillColor=none;" parent="1" vertex="1">
          <mxGeometry x="567" y="750" width="31" height="26" as="geometry" />
        </mxCell>
        <mxCell id="xVth3tveWRHT5VVFhn84-77" value="14" style="text;html=1;align=center;verticalAlign=middle;resizable=0;points=[];autosize=1;strokeColor=none;fillColor=none;" parent="1" vertex="1">
          <mxGeometry x="612" y="810" width="31" height="26" as="geometry" />
        </mxCell>
        <mxCell id="xVth3tveWRHT5VVFhn84-78" value="16" style="text;html=1;align=center;verticalAlign=middle;resizable=0;points=[];autosize=1;strokeColor=none;fillColor=none;" parent="1" vertex="1">
          <mxGeometry x="857" y="75" width="31" height="26" as="geometry" />
        </mxCell>
        <mxCell id="xVth3tveWRHT5VVFhn84-79" value="17" style="text;html=1;align=center;verticalAlign=middle;resizable=0;points=[];autosize=1;strokeColor=none;fillColor=none;" parent="1" vertex="1">
          <mxGeometry x="852" y="167" width="31" height="26" as="geometry" />
        </mxCell>
        <mxCell id="xVth3tveWRHT5VVFhn84-80" value="18" style="text;html=1;align=center;verticalAlign=middle;resizable=0;points=[];autosize=1;strokeColor=none;fillColor=none;" parent="1" vertex="1">
          <mxGeometry x="927" y="284" width="31" height="26" as="geometry" />
        </mxCell>
        <mxCell id="xVth3tveWRHT5VVFhn84-81" value="19" style="text;html=1;align=center;verticalAlign=middle;resizable=0;points=[];autosize=1;strokeColor=none;fillColor=none;" parent="1" vertex="1">
          <mxGeometry x="887" y="410" width="31" height="26" as="geometry" />
        </mxCell>
        <mxCell id="xVth3tveWRHT5VVFhn84-82" value="20" style="text;html=1;align=center;verticalAlign=middle;resizable=0;points=[];autosize=1;strokeColor=none;fillColor=none;" parent="1" vertex="1">
          <mxGeometry x="856" y="521" width="31" height="26" as="geometry" />
        </mxCell>
        <mxCell id="xVth3tveWRHT5VVFhn84-83" value="1" style="text;html=1;align=center;verticalAlign=middle;resizable=0;points=[];autosize=1;strokeColor=none;fillColor=none;" parent="1" vertex="1">
          <mxGeometry x="1210" y="-21.5" width="25" height="26" as="geometry" />
        </mxCell>
        <mxCell id="xVth3tveWRHT5VVFhn84-84" value="2" style="text;html=1;align=center;verticalAlign=middle;resizable=0;points=[];autosize=1;strokeColor=none;fillColor=none;" parent="1" vertex="1">
          <mxGeometry x="1271" y="100.5" width="25" height="26" as="geometry" />
        </mxCell>
        <mxCell id="xVth3tveWRHT5VVFhn84-85" value="3" style="text;html=1;align=center;verticalAlign=middle;resizable=0;points=[];autosize=1;strokeColor=none;fillColor=none;" parent="1" vertex="1">
          <mxGeometry x="1260" y="198.5" width="25" height="26" as="geometry" />
        </mxCell>
        <mxCell id="xVth3tveWRHT5VVFhn84-86" value="4" style="text;html=1;align=center;verticalAlign=middle;resizable=0;points=[];autosize=1;strokeColor=none;fillColor=none;" parent="1" vertex="1">
          <mxGeometry x="1268" y="300.5" width="25" height="26" as="geometry" />
        </mxCell>
        <mxCell id="xVth3tveWRHT5VVFhn84-87" value="5" style="text;html=1;align=center;verticalAlign=middle;resizable=0;points=[];autosize=1;strokeColor=none;fillColor=none;" parent="1" vertex="1">
          <mxGeometry x="1265" y="393.5" width="25" height="26" as="geometry" />
        </mxCell>
        <mxCell id="xVth3tveWRHT5VVFhn84-88" value="6" style="text;html=1;align=center;verticalAlign=middle;resizable=0;points=[];autosize=1;strokeColor=none;fillColor=none;" parent="1" vertex="1">
          <mxGeometry x="1265" y="536.5" width="25" height="26" as="geometry" />
        </mxCell>
        <mxCell id="xVth3tveWRHT5VVFhn84-90" value="7" style="text;html=1;align=center;verticalAlign=middle;resizable=0;points=[];autosize=1;strokeColor=none;fillColor=none;" parent="1" vertex="1">
          <mxGeometry x="1226" y="641.5" width="25" height="26" as="geometry" />
        </mxCell>
        <mxCell id="xVth3tveWRHT5VVFhn84-91" value="&lt;span style=&quot;text-wrap: wrap;&quot;&gt;fischer_one_class(one_class)&lt;/span&gt;" style="text;html=1;align=center;verticalAlign=middle;resizable=0;points=[];autosize=1;strokeColor=none;fillColor=none;" parent="1" vertex="1">
          <mxGeometry x="1015" y="-51" width="176" height="26" as="geometry" />
        </mxCell>
        <mxCell id="xVth3tveWRHT5VVFhn84-92" value="" style="endArrow=none;html=1;rounded=0;entryX=0.5;entryY=1;entryDx=0;entryDy=0;" parent="1" target="xVth3tveWRHT5VVFhn84-11" edge="1">
          <mxGeometry width="50" height="50" relative="1" as="geometry">
            <mxPoint x="311" y="915" as="sourcePoint" />
            <mxPoint x="293.5" y="819" as="targetPoint" />
          </mxGeometry>
        </mxCell>
        <mxCell id="xVth3tveWRHT5VVFhn84-93" value="" style="endArrow=classic;html=1;rounded=0;entryX=0;entryY=0.5;entryDx=0;entryDy=0;" parent="1" target="WO-EqX3i4rQMslcprNJ9-3" edge="1">
          <mxGeometry width="50" height="50" relative="1" as="geometry">
            <mxPoint x="400" y="915" as="sourcePoint" />
            <mxPoint x="237" y="211.5" as="targetPoint" />
            <Array as="points">
              <mxPoint x="400" y="925" />
              <mxPoint x="161" y="925" />
              <mxPoint x="161" y="212" />
            </Array>
          </mxGeometry>
        </mxCell>
        <mxCell id="xVth3tveWRHT5VVFhn84-94" value="" style="endArrow=none;html=1;rounded=0;" parent="1" edge="1">
          <mxGeometry width="50" height="50" relative="1" as="geometry">
            <mxPoint x="311" y="915" as="sourcePoint" />
            <mxPoint x="521" y="895" as="targetPoint" />
            <Array as="points">
              <mxPoint x="521" y="915" />
            </Array>
          </mxGeometry>
        </mxCell>
        <mxCell id="ode5Mh4wPx0NJ1l5NyL5-1" value="&lt;img alt=&quot;&quot; src=&quot;data:image/png;base64,iVBORw0KGgoAAAANSUhEUgAAAMIAAAB3CAYAAABR5p/3AAAAAXNSR0IArs4c6QAAAARnQU1BAACxjwv8YQUAAAAJcEhZcwAADsMAAA7DAcdvqGQAABQBSURBVHhe7Z0JXFRV+8cfl3wzt0STEhVZZEdQRFMztcx9LcrKXFLMFddQcYNcSt/KUrMy81+a5lb0qqm4ZGnu7DviDooi7igaAvM/zzNndIABhoELN3m+n8/9zLmHy8w9y+/szzmVNAJgmApOZfnJMBUaFgLDCFgIDCNgITCMgIXAMAIWAsMIWAgMI2AhMIyAhcAwAhYCwwhYCAwjYCEwjICFwDACFgLDCFgIDCNgITCMgIXAMAIWAsMIWAgMI2AhMIyAhcAwAhYCwwhYCAwjYCEwjICFwDACFgLDCFS95SO+mt/sebDvz4NQrVo16cswhln3w7dgbWUp74qHqoWQk5MDfV8fBI2bNIL69cykL8MY5v0h7z6ZQsjOzgE7F09IjA2GKpW5Fccoh6pz16WUFGjcqCFUkvcMoxSqFkJUdBy4N3eBSpVYCoyyqFYI2GILD48ENxYCUwaoWgiRMbHQXAiBqXjgQEl2djZdZYGKhQAQHhlFNQJTccAC8MixEzDwPW+wc2kNfd8YBBs2B5IwlES1Qjh77jxYWVpCZW4WVSju3EmHD6fPhUk+o2DrL+ugbRtPmO2/EHwmTyeRKIVqhRATGw+uzo7cP6hAYKm/fuMWMDOrC9ZNLcFFpP/IEUOgkUVDCNqzH65fvyGfLH3UK4SYOHB2dmAhVCAwrVNT0yA+IRHupKeTn3mD52BAv17kTjx9hj6VQJVCwCowTkSGk6OD9DEMTrgZc2VmZhn0N3SVZvV76/ZtRavzfzu3b9+RLi0ohLGjR0DgpjVgb9dM+gKcCAmjTytRSyiFKmeWsYp0a90JDu//HWrXri19c3PoyDEYOmKcvCs9tgf+LARoL+9MB6O1n+jozZoxFdq09pC+jD4+k6dBK4+WMPS9t6VPfsLCI+HNd4dDz+5dYdmSj5VrIaAQ1EbSxUuaDq/20mRlZUuf/GRnZ2vG+nyosXZoSdeJkHB6Hq/MzIeP3A8fZuVz/5OZqQkJDdes+r+1mvGTfDXWjtrvwGvGrACNEKL8FdPB78DvO34iVPowecH4WbNuo7zLD6bx628N0bw92JvcSqLKplGs6Cg7OdgJ9UsPA1SuXBkmThgD5ubP0f2iz76Em7duQZUqleGpp6rSJ15Vq1bJ56721FPg0dIdvN8fDEs/XwQ/fPcVvNS2DX3P0RMhIMRCbkZZhgx6S7ryg62CpV+thGr/qQbrf1xJ6a0kqhRCXHwCODrYF1kN2tlaw8Rxo8gdERENcwM+LvZ4M0bwyy+1hR9Xr6ARiuTkFDh46Kj8K1MeiAIalq34DoJDwx6J4Mvl39L8glKoTggYCQknT4ODfTOj2oNvefUHrwF9yL1735+iFPnWpA4q/ta0KT7waueXhRCOKD6B86SAcf3Tz5uLvAJ/2yb/4zEFpdPyr1eJDnIorF39DaULpsXe/QegwXPa2l8JVCmEkydPiRrBTvoUDkbUpAljwUauQ//qm9Wwe+9+chcXLHkWBMyEo8eDTRJTRSUiMhp2Bu0t9DKW7Tt2U5Po+IkwcG7RHrr28oLXBw6Da2nXwKppE/lU6aO6UaP09LvQrlMPiDhxgNrzxrJj1x6YMMWP3E0aW8DqlctNNtLAEggFZkyNVBAYrYOGfgCTfMZAa8+W0vfJA8NpbO1ZpUoV6dISMH8xWFs3FX2FgdIH4J0hH0hXbvB3Nqz9rkRpUhiqqxESqDawFQGWHkbSo1sX0cYfTO6k5EuwfMVKk5s3WDMoFeH6YOJmi3e8knoVomPiaB5D5/9vAeMJMzhe2g5tJbh2/QaER0RBxoMH5K97Ji+GwvnzmpUGLyVFgKhOCHEJJ8HRHkeMihdoTIRpUybAq5060P02UcWu27Cl3DIV/m5hYUCRbvl1K/Tu/y506+0Fvn4BMHbCVIiNS4BxE6fRWqt/E7rw9HnjXdGceQPmzlsE7p4vi/DEw8JFS2DDpl/lk48xFDsYZwVdSqI6IZxMSAQ7O+M6ynlBMcz0mwrWsi25dPm3EBd/ktzlQUEixEyzavVa8JszH7yHD6Jm4K5tm8DW1gamTp9LfZynn35aPq1+tOFZQ+EZMUwbnp1bN8H40SNFePzhx582QPXq+cOjpppPVULACI0XTSOcQzCVpk0aw8zpU8h96/YdWLL060dNDjWAif9L4Db475LlNEL1er/ej0q8ieM+gFOnz9BGBeYNGsj/yE1UdKx0qYPH4fkKuojwDOjb61EhNn6MN4UHadnCjT7ViqqEgAVEfGIiOJRACEinji/BtKk+5P7r4GFYtsK0IdWSYug3ky9eghXffi9cGhjlPTRXzbdn31/06eiANSI5c4EDAgPeGkKjKsaChUtWdrZJlzFGMUkUntXk9h4+WPYTtBw+cow+cb4HV5DmhWuEAriQlAQvmD8P/ynhHkaYuUYOHwL9+/Sg+/9t20UZoizB38ubzJjw637eBBcvXQYzMzNo4d5c/kULmqYi9na2uTKUDlyJ6ec7CXzGjpQ+RYOiQQMXU64JU2bIbymYTZt/FeFJgXpmdWm2Xh8UPdK2rWcuwevQGFJ7OaEqIWBH0YlKw5JHEGakjxfMJffkCaMNjlooCf5+3lCgOGJEGBF3t+a5Mjv+DU1TkZbuuTOUjlYeLfKVukUxyWc0nI4NNulatmSR/BbDYI2RevUaud3cXHO9F4r+/IVkcnt6tDSYppW4RjAMGuM4Oha9tMIYsF/w7mBvmDV9MvTtra0ZSgJm1Fn+C2HazADpU3wwXDGxWiG0cMttgnr5ylUIj4gmd2tPD5mRkugef/vnjb/A9z/8VOzmBP4mZlBTrqIKD/zutDStEFoIIeiTk6OBiOgYcnsKAeN7K7lEoqSoRggYUQkJp8DBvmT9AwQzzrSZ/tCmdSsYOvgdStSSclUk+MbNgTDwzQHSp/hgHq5duxa5m7s606eO4ydC6BOHjuvUqQXbdwSB35wFFJaf1m+GwK07IDIqhtbgqIm6dZ+lz7zhwWYurv/CgQ+0OMMO9byFn1F41IiqhBAbn0BrjEoCRjSuN/rnnyyYOml8qTWJnjdvAKfjQsCjBKMfWNE5SoOTdGmBhaCd7pr1m8jt6upCwkVjlDaeLam5iGt1Nv60iv6edu16sWsFpcAaQWcso+sPINhkWrlqDbldXJzpORRx317dyK1GVCOEiymXaZb1heeflz7FBzMIljwH/z4K/rM/FCIoneChuPAqaSJiBn9L1ijxCSfhSmoqve/EqTOg88vtyf9hVibs/+tvOBYcCuPHjIT0u3dFH2cMRMXEw86gfaKZ4a6azITvgTUkduL37t1PTTkc2Zo6bTY0aFCPnnmY9RDCI6Nh6+9BMHjw26oVQpUAgXSXK0ePBcOlSynwxoA+JkfW4aPHIWDBf+HzxfPB2qqp9C0emOG/WPYN/JOZCU0tm8A1UQIPGT6WmiR3792DF0VzyxhQlDNmzwOvAX3BwuIF6Qu0/qlRIwvY+8cBmjjTaHLA6/V+NJ8AlSpD2tU0WqT2e+AGsqtoLJ61a2ZDzbILScmweKG/qjJTzRo1oJmtNdlx/PHnQch8mEl9sjf69wEbG2s4e/Y8TbYtW/IJ2Ig00X/3P4XgzeqZqWPLHpFgquDTJcs1/vM+Mdk67PKVVE2Pfm9r/th/QPqYxvoNWzTdenk9sojq0mOAZvuO3ZpNW34jiypjLaXwucIs1LKysiis+uFFN/5f3t/A+26939T4zZlPzwjBy7+oB3xH3fvro/M3xBz/hYVaqJUlqmgaifcQHeVEMtg2pbR7mJVF+94MH/oOdJZrjUzheHAYfPzpUujR/VVqxuB71a9fH3p270LbiXTs0E4+WXJ0i9H0w4tu/N28nXscbcEZ2oFe/WleYOcu45c1lxX4zrr310fnr3ZUIwRcE2RnZyt9jAeHSaf6zobOHds/Wq5QXESJRdX0jFkBcD8jA3r16Eb++F246hFXsx74+zD0EVV+3oQuC9zl0KSzk4MQayjM89cuN2dKD1UIIe3aDUhNu5ZrCw9jENWuaM9/DTVqVIdR3u9TxkVR4YWZW/epc+v/Da+bt27TsKWvnz94j5lEGd5FZLa8dgx7RFvesklj6NOzq/QpW56pXh0WLZgLkz+cBfPm+pWLGJVgvYEVqeWFKgxzDvx9BD6avxj2Bf1mdCLja6NhB236JEKQtyLIEX6VpZ++mxDuSylX4OLFFOnxmHlzZ8Cgd96Ud9raArcTwV3X/Gf5QodXe8Oh/TuKrHnw/5o5e4oaZdUTbZhTElxaateE6RvmlBeqKFq0/QM0xik8c+mD5pQHDh6Gy5evQGrqVdohDWc5cZTn+vWbcOvmLbglSnzcRCr9zj2yfLt3LwMyMu7Dg/sP4Ll6uNbHFTxaukErDzdo3aoFjdsPwNGbPKApYtcunWjtDdpHG/ue7du2EYKVN0w+BnoNoEJMDShWIyxc/AX4+U4ssoTHn5/sOwssLS1hso92RwpjwVLXGPA5Y2uavM/h++HQqW5G91RscLGaJvj/xRE4Uz4oUiNgBzY2Pk7eFQ5mFDTWd3UufHtHQ2CGNOaqWrWqQX9DV14wE08Y9wHNKp+JDzX4TGGwCP4dKCIEHH1JSDhtVLMgKysHEs+cARcXR+mjPjAzc4Z+sil1IWBtcCI0nNrmKVeuSN+COZmYSDYIDerXlz4MU/aUuhA2bQl8NBqTmHiKPgsDtwDncxCY8qZUO8tYG3Tv9yZcSUmFjPv3YYbvBBg5fKj8q2E+WrAY6tevB+NGe0ufgjlz9jz8dfCQvGMYgA7t29JarJJSqkJYu24jpFy+DEeOBovO8kkY6NUPFs6bU2Bpjz+Nm2CNGjkMOnbQrr4sDBQCbhXCMDp2bdusLiFgbeDq2R6Ctv0CS774Crbv3EPj8xvWfl/gSAsOazq6t4NjB4Og7rNaA4/CyMjIkC6GecwzzzwjXSUAhVAa4NkDfnMX0ErDL5d/QysvPdq9QucRFMSF5Iuazt36FfoMw5QFpdZZxrMHPv5oFjWDbKytyO/mjVtwNS2N3IbQzh9gR1l6MEw5ocg8gr5RDJ51UBAJJ/GctNIx1meYkqCIEOya2ULNWjXIXdCWi6I2ImN9U20QGKY0UWStEXaCvd4eBpHRsdCtS2dYsezTfJkdn2nfsTv879f1ZPPK5AcXEOJGxkiOSCbd4eu45CPvAAQmIxrt1KxZExpbNNQWROL5eFEQjRj2Hhc2RaBIjYCRrjvUAXe3NqS1+/f/ocStX09r5M3kB/eBRau548EhEBIaTifJ4IUG8nlBe+1DR46TGMZO9CU764CPPqFdMLDQYYoAawQlWP71dzRyhNfNm7el72NCwiI0Q4aPzmfjyuQG4+fGzVuajl36aKxkfI4eNyVfvOFoHV6i30XPbPs9qFB7YSY3itQIiL61WYyBDjPaIBh7TlpFBptAuAO2tVUTGD5Yex7xnj/+oppWH4xHvE6dPgeuLk7Qq8dr9L8cv8ahmBD07Y8vnL8gXVqEAGkzr2aiU80JVTRRUdHg4uwEE3xGSx+AHTt3G2xy4kbCbq5OHK/FRDEhNGrYEOrU0Z6aj3vb6IMJGBIaQdsbMoWD7fuomDgyFa0lOsI6u+mgvfvhXsZ9cuvAeMXNtFzl7nKM8SgmBEwHnRE87oqsX3qh88y582Bfwu0dKwLpd++JzB0DznKFLu7liiQlXaL9UfXBzQdwR+3mokZgioeCQqj0aDHUmXPncgkhKTkZ7EWzSDccyBRMmGjqoH31C+baE3RwV7gX23iQ+7etv+caEQoOCYNm1tZga2MtfRhjUVgI2n5C8sUUePgwi9wI2iDYC5Fw9V00EVEx4O7m8iiusAPcv08vcoeGRcIOvTOMcYjVybH4BzEyCgoBsbV9XDKd0+sw41Gq9vbcUS4KLO2DQ0KhtWerXHHVvVsXaNRIexRT4G/bqbbFZ8Miorh/YCKKCsHZ8bFB/pmz5+iTOsphEWBnW/xd7Soat2+n0wn0HfJsNVnjmerQ/bVXyH3w0FE4cjxY2+86e577ByaiqBDq1K4FFg21O0Gf1RNCaHhUic9BqAicCA4F9+bOYPZsHemjBZtHvXvitpTaftfuoH0iXnOgSSOLfAd2MMahqBCwinaUGf7suQskgtt30qHus7XB3Nyc/JmCQSG81P5Fg00d3Af1tVc6kXvX3v0QF58o/Oxp6xqm+CguBAfZPMJqG4WAS6+1u9qRN1MA2OaPiI6liTRDQsBaoZecU7hx4yYs+mwpODnxJgimoqgQECf9GkF8RkXFgEMzXlpRFNjmx60mXVwKbvP37P4aNJNDpRGRUXQQI2MaigvB0VE7e3z/wQNIupBMM8rOzg4shELAmhNXmLbx9ADz5wre7wnPWOjWtTO5zeo+C26FiIYpHMWFYGHREGrX0p4kmZB4ijrKjg5cchkCt7n/cvlK8Jk0DSb7zqSzEEaNnQwLF32ea+JMn549tM0jJxGnuhMumeKjuBA0IgHtHbS1Agrh7r27xT4HoaJw+sxZGv2xsbWlgwR9xnqLdr8D7dKAtYQh7GxtxLPepXY+dUVFEQs1ffDrZ86ZB5t/3QbtXmwD6el3IHDzWursMYxaUDw3YilladmY3OERkaKE45KLUR9lUixbNtGabWKHGWebWQiM2igTIdjYaPc5QnBdPcOojbIRgpUV1Kih3ZYP19UzjNooEyHgSAjOerq7u7INAqNKykQIOPFj1cQCWjR/vK6eYdREmQgBM3+9evVE86gGC4FRJYrPIzDMv4EyqREYRu2wEBhGwEJgGAELgWEELASGEbAQGEbAQmAYAQuBYQQsBIYRsBAYRsBCYBgBC4FhBCwEhhGwEBhGwEJgGAELgWEA4P8BhIe0VVaYXV8AAAAASUVORK5CYII=&quot;&gt;" style="text;html=1;align=center;verticalAlign=middle;resizable=0;points=[];autosize=1;strokeColor=none;fillColor=none;" parent="1" vertex="1">
          <mxGeometry x="1290" y="176" width="212" height="134" as="geometry" />
        </mxCell>
        <mxCell id="WO-EqX3i4rQMslcprNJ9-9" style="edgeStyle=orthogonalEdgeStyle;rounded=0;orthogonalLoop=1;jettySize=auto;html=1;entryX=0.5;entryY=0;entryDx=0;entryDy=0;" parent="1" source="WO-EqX3i4rQMslcprNJ9-2" target="xVth3tveWRHT5VVFhn84-8" edge="1">
          <mxGeometry relative="1" as="geometry" />
        </mxCell>
        <mxCell id="WO-EqX3i4rQMslcprNJ9-12" style="edgeStyle=orthogonalEdgeStyle;rounded=0;orthogonalLoop=1;jettySize=auto;html=1;entryX=0.5;entryY=0;entryDx=0;entryDy=0;" parent="1" source="WO-EqX3i4rQMslcprNJ9-2" target="WO-EqX3i4rQMslcprNJ9-11" edge="1">
          <mxGeometry relative="1" as="geometry" />
        </mxCell>
        <mxCell id="WO-EqX3i4rQMslcprNJ9-2" value="len(line) == 0" style="rhombus;whiteSpace=wrap;html=1;" parent="1" vertex="1">
          <mxGeometry x="271" y="372" width="80" height="80" as="geometry" />
        </mxCell>
        <mxCell id="WO-EqX3i4rQMslcprNJ9-5" value="" style="edgeStyle=orthogonalEdgeStyle;rounded=0;orthogonalLoop=1;jettySize=auto;html=1;" parent="1" source="WO-EqX3i4rQMslcprNJ9-3" target="xVth3tveWRHT5VVFhn84-2" edge="1">
          <mxGeometry relative="1" as="geometry" />
        </mxCell>
        <mxCell id="WO-EqX3i4rQMslcprNJ9-3" value="flag == True" style="rhombus;whiteSpace=wrap;html=1;" parent="1" vertex="1">
          <mxGeometry x="271" y="171.5" width="80" height="80" as="geometry" />
        </mxCell>
        <mxCell id="WO-EqX3i4rQMslcprNJ9-10" value="нет" style="text;html=1;align=center;verticalAlign=middle;resizable=0;points=[];autosize=1;strokeColor=none;fillColor=none;" parent="1" vertex="1">
          <mxGeometry x="263" y="444" width="36" height="26" as="geometry" />
        </mxCell>
        <mxCell id="WO-EqX3i4rQMslcprNJ9-14" style="edgeStyle=orthogonalEdgeStyle;rounded=0;orthogonalLoop=1;jettySize=auto;html=1;entryX=0;entryY=0.5;entryDx=0;entryDy=0;" parent="1" source="WO-EqX3i4rQMslcprNJ9-11" target="WO-EqX3i4rQMslcprNJ9-3" edge="1">
          <mxGeometry relative="1" as="geometry">
            <Array as="points">
              <mxPoint x="472" y="541" />
              <mxPoint x="644" y="541" />
              <mxPoint x="644" y="941" />
              <mxPoint x="161" y="941" />
              <mxPoint x="161" y="212" />
            </Array>
          </mxGeometry>
        </mxCell>
        <mxCell id="WO-EqX3i4rQMslcprNJ9-11" value="flag = False" style="rounded=0;whiteSpace=wrap;html=1;" parent="1" vertex="1">
          <mxGeometry x="412" y="433" width="120" height="60" as="geometry" />
        </mxCell>
        <mxCell id="WO-EqX3i4rQMslcprNJ9-17" style="edgeStyle=orthogonalEdgeStyle;rounded=0;orthogonalLoop=1;jettySize=auto;html=1;entryX=0.5;entryY=0;entryDx=0;entryDy=0;" parent="1" source="WO-EqX3i4rQMslcprNJ9-15" target="xVth3tveWRHT5VVFhn84-31" edge="1">
          <mxGeometry relative="1" as="geometry" />
        </mxCell>
        <mxCell id="WO-EqX3i4rQMslcprNJ9-15" value="with open(&#39;4731_my.csv&#39;) as f" style="rounded=0;whiteSpace=wrap;html=1;" parent="1" vertex="1">
          <mxGeometry x="226.5" y="-25" width="167" height="60" as="geometry" />
        </mxCell>
        <mxCell id="4gvhwwYaIoH6BuL1WqMx-1" value="6" style="text;html=1;align=center;verticalAlign=middle;resizable=0;points=[];autosize=1;strokeColor=none;fillColor=none;" parent="1" vertex="1">
          <mxGeometry x="358" y="380" width="25" height="26" as="geometry" />
        </mxCell>
        <mxCell id="4gvhwwYaIoH6BuL1WqMx-2" value="7" style="text;html=1;align=center;verticalAlign=middle;resizable=0;points=[];autosize=1;strokeColor=none;fillColor=none;" parent="1" vertex="1">
          <mxGeometry x="508" y="402" width="25" height="26" as="geometry" />
        </mxCell>
        <mxCell id="4gvhwwYaIoH6BuL1WqMx-3" value="да" style="text;html=1;align=center;verticalAlign=middle;resizable=0;points=[];autosize=1;strokeColor=none;fillColor=none;" parent="1" vertex="1">
          <mxGeometry x="338" y="412" width="32" height="26" as="geometry" />
        </mxCell>
        <mxCell id="4gvhwwYaIoH6BuL1WqMx-4" value="Да" style="text;html=1;align=center;verticalAlign=middle;resizable=0;points=[];autosize=1;strokeColor=none;fillColor=none;" parent="1" vertex="1">
          <mxGeometry x="277" y="237" width="33" height="26" as="geometry" />
        </mxCell>
        <mxCell id="4gvhwwYaIoH6BuL1WqMx-5" value="Нет" style="text;html=1;align=center;verticalAlign=middle;resizable=0;points=[];autosize=1;strokeColor=none;fillColor=none;" parent="1" vertex="1">
          <mxGeometry x="350" y="188" width="38" height="26" as="geometry" />
        </mxCell>
      </root>
    </mxGraphModel>
  </diagram>
</mxfile>
